REM GENRE Symphonic Rock, Heavy Metal
REM GENRE Symphonic Rock, Heavy Metal
REM DATE 2012
PERFORMER "Therion"
TITLE "Les Fleurs Du Mal"
FILE "a.flac" WAVE
  TRACK 01 AUDIO
    TITLE "Poupee De Cire, Poupee De Son (Opening Version)"
    INDEX 01 00:00:00
  TRACK 02 AUDIO
    TITLE "Une Fleur Dans Le C?ur"
    INDEX 01 02:50:48
  TRACK 03 AUDIO
    TITLE "Initials B.B."
    INDEX 01 05:52:65
  TRACK 04 AUDIO
    TITLE "Polichinelle"
    INDEX 01 09:36:43
FILE "b.flac" WAVE
  TRACK 05 AUDIO
    TITLE "Mon Amour, Mon Ami"
    INDEX 01 00:00:00
  TRACK 06 AUDIO
    TITLE "La Maritza"
    INDEX 01 04:34:51
  TRACK 07 AUDIO
    TITLE "S?ur Angelique"
    INDEX 01 08:28:13
FILE "c.flac" WAVE
  TRACK 08 AUDIO
    TITLE "Dis-Moi Poupee"
    INDEX 01 00:00:00
  TRACK 09 AUDIO
    TITLE "Lilith"
    INDEX 01 03:22:15
  TRACK 10 AUDIO
    TITLE "En Alabama"
    INDEX 01 05:50:35
  TRACK 11 AUDIO
    TITLE "Wahala Manitou"
    INDEX 01 08:29:47
FILE "d.flac" WAVE
  TRACK 12 AUDIO
    TITLE "Je N'ai Besoin Que De Tendresse"
    INDEX 01 00:00:00
  TRACK 13 AUDIO
    TITLE "La Licorne D'or"
    INDEX 01 02:12:45
  TRACK 14 AUDIO
    TITLE "J'ai Le Mal De Toi"
    INDEX 01 04:56:30
  TRACK 15 AUDIO
    TITLE "Poupee De Cire, Poupee De Son"
    INDEX 01 07:46:32
